<?xml version="1.0" encoding="utf-8"?>
<!-- Generator: Adobe Illustrator 23.0.2, SVG Export Plug-In . SVG Version: 6.00 Build 0)  -->
<svg version="1.1" id="Layer_1" xmlns="http://www.w3.org/2000/svg" xmlns:xlink="http://www.w3.org/1999/xlink" x="0px" y="0px"
	 viewBox="0 0 44.1 43.4" style="enable-background:new 0 0 44.1 43.4;" xml:space="preserve">
<style type="text/css">
	.st0{display:none;fill-rule:evenodd;clip-rule:evenodd;fill:#FFFFFF;}
	.st1{fill-rule:evenodd;clip-rule:evenodd;fill:#FFFFFF;}
</style>
<g>
	<g>
		<path class="st0" d="M44.1,10.9c-0.6-5.4-3.6-10.2-9.7-10.8c-2.2-0.2-4.5,0-6.9,0c-29.2,0-58.6,0-88.3,0c-2.5,0-4.5-0.1-6.4,0.4
			C-72.3,1.9-76.6,6.1-77,12c0-4,0-8.1,0-12.1c40.4,0,80.8,0,121.1,0C44.1,3.6,44.1,7.2,44.1,10.9z"/>
		<path class="st1" d="M44.1,10.9c0,7.2,0,14.4,0,21.7c-0.8,6.1-3.8,10-9.9,10.8c-32.7,0,10.9,0-22.2,0C5.2,42.3,0.9,38.6,0,31.5
			C0,25,0,18.5,0,12C0.4,6.1,4.7,1.9,9.9,0.5c1.9-0.5,6.4-0.4,6.4-0.4c29.7,0-17.9,0,11.3,0c2.4,0,4.7-0.2,6.9,0
			C40.5,0.7,43.5,5.5,44.1,10.9z M12.1,3.3c-3.5,0-7.6-0.7-7.5,2.3c0,3,4.5,2.2,7.9,2.2c1.5,0,5.9-0.5,6.2,0.7
			c0.5,1.9-1.3,1.6-2.9,1.6c-4.2,0-6.8,0-10.8,0c0,1.4,0,3.2,0,5c0,1.7-0.3,3.8,0.1,4.9c0.3,0.9,1.5,1.4,2.5,1.3
			c2.4-0.4,1.9-3.7,1.9-6.6c0,0,0.1,0,0.1,0c4.7,0,10.2,0.6,12.4-1.9c1.6,2.1,5.4,1.8,9.2,1.8c2,0,3.9-0.3,3.8,1.2
			c0,0.9-0.8,1-2.3,1.1c-1.3,0-2.3,0-3.4,0c-3.2,0-7.8-0.8-7.8,2.2c0,3,4,2.2,6.9,2.2c2.2,0,3.9,0.2,5.9,0c1.6-0.2,3.3-1.1,4-2
			c1.4-1.8,1.5-5.6-0.2-7.4c-1.8-2-5.1-1.8-9.3-1.8c-2.4,0-3.7,0.2-3.8-1c-0.1-1.9,3.7-1.3,5.6-1.3c3.8,0,7.9,0.8,7.9-2.2
			c0-2.8-3.3-2.2-6.5-2.2c-4.3,0-8.5-0.4-10.2,1.8C20.1,3,16.3,3.3,12.1,3.3z M29.1,40.8c1.8,0,3.8,0.2,5.5,0
			c3.1-0.4,4.9-2.7,4.9-5.6c0-2.9-2-5.2-5-5.5c-1.6-0.2-4.1,0-5.3,0c-1.8,0-4.2,0.3-4.1-1.2c0-1.7,4-1.2,5.5-1.2
			c1.9,0,5.2,0.4,6.6-0.1c1.9-0.7,1.5-3.6,0.1-4.1c-1.1-0.4-3.7-0.2-5.5-0.2c-4.3,0-7.9-0.2-9.8,1.7c-1.5,1.5-1.7,4.8-0.8,6.7
			c1.5,3.1,5.1,2.9,9.9,2.9c2.2,0,4.2-0.2,4,1.3c-0.1,1.5-3.8,1-5.4,1c-2.2,0-6.1-0.3-7.2,0.5c-0.3,0.2-0.3,0.6-0.6,0.6
			c-0.1,0-0.6-0.6-0.6-0.6c-0.2-0.1-0.7-0.3-1-0.3c-2.3-0.3-4.5,0.2-6.6,0c-1.3-0.1-2.7-0.6-3.4-1.5c-1.3-1.5-1-3.8-1-6.7
			c0-1.1,0.4-3.2-0.2-4.4c-0.8-1.7-3.8-1.3-4.2,0.4c-0.3,1.1,0,2.6,0,3.7c0,1.4-0.2,2.5-0.1,3.6c0.4,5,2.9,8.8,7.8,9.2
			c1.1,0.1,2.5,0,3.9,0c2.5,0,4.8,0.5,5.6-1.2C23.1,41.3,26.5,40.8,29.1,40.8z"/>
		<path class="st0" d="M-21.8,2.4c-0.2,1.3-1.3,1.2-2.3,1.4c-0.9,0.2-2.1,0.7-3,0.7c-0.5,0-0.9-0.2-1.4-0.2c-0.8,0-1.8,0.4-2.8,0.6
			c-4.5,0.9-9.6,1.9-14.1,2.9C-47.3,8.2-49.3,8.5-51,9c-0.6,0.2-1.1,0.7-1.6,0.8c-0.7,0.2-1.6,0.3-2.3,0.4c-0.8,0.2-1.7,0.5-2.2,0.4
			c-0.8-0.1-1.3-0.9-1.9-1.1c-1.4-0.4-3.7,0-5.1,0.4c-1,0.3-2.9,1-3.5,1.9c-0.2,0.4-0.3,0.9-0.5,1.4c-0.6,1.2-1.2,2.4-1.7,3.8
			c-1.9,5.6-2.3,12.2-2.3,19.1c-0.3,0.4-0.5-0.4-0.7-0.7c-0.6-1-1.2-2.6-1.4-4.1c-0.3-3,0-6.5,0-9.7c0-3.4-0.2-6.8,0-9.7
			c0.4-5.4,5-9.3,10.2-9.7c3.5-0.2,7.1,0,10.6,0C-43.1,2.4-32.5,2.4-21.8,2.4z"/>
		<path class="st0" d="M-10,2.4C-4.7,2.2-1,5,0.7,8.4c1.6,3.2,0.9,7.5,1.1,12.4c-0.6-0.7-0.9-1.6-1.3-2.4c-2-4-4.3-8.1-6.9-11.7
			C-7.5,5.2-8.7,3.9-10,2.4z"/>
		<path class="st0" d="M21.8,5.2C23.5,3,27.7,3.4,32,3.4c3.2,0,6.5-0.5,6.5,2.2c0,3-4.1,2.2-7.9,2.2c-1.9,0-5.8-0.6-5.6,1.3
			c0.1,1.1,1.4,1,3.8,1c4.2,0,7.5-0.2,9.3,1.8c1.7,1.8,1.6,5.6,0.2,7.4c-0.7,0.9-2.5,1.8-4,2c-2,0.2-3.8,0-5.9,0
			c-2.9,0-6.9,0.8-6.9-2.2c0-3,4.5-2.2,7.8-2.2c1.1,0,2.1,0,3.4,0c1.5,0,2.3-0.1,2.3-1.1c0.1-1.5-1.9-1.2-3.8-1.2
			c-3.9,0-7.6,0.3-9.2-1.8c-2.2,2.5-7.7,1.9-12.4,1.9c0,0-0.1,0-0.1,0c-0.1,2.9,0.5,6.2-1.9,6.6c-1,0.2-2.2-0.4-2.5-1.3
			c-0.4-1.1-0.1-3.2-0.1-4.9c0-1.8,0-3.6,0-5c4,0,6.7,0,10.8,0c1.6,0,3.3,0.3,2.9-1.6c-0.3-1.2-4.7-0.7-6.2-0.7
			C9,7.8,4.6,8.6,4.5,5.6c-0.1-3.1,4-2.3,7.5-2.3C16.3,3.3,20.1,3,21.8,5.2z"/>
		<path class="st0" d="M-15.4,4.6c2-0.4,3.8,1.2,3.1,3.1c-1.2,3-5.8,1.8-4.9-1.5C-17,5.5-16.5,4.8-15.4,4.6z"/>
		<path class="st0" d="M-22.2,8.5c-0.4,0.6-1.1,0.9-1.8,0.7c-1-0.3-1-2.5-1.2-3.6c0.4-0.7,1.3-1,2-0.6C-22.3,5.4-22.4,7.4-22.2,8.5z
			"/>
		<path class="st0" d="M-8.7,8.5c2-0.4,3.8,1.2,3.1,3.1c-1.2,3-5.8,1.8-4.9-1.5C-10.4,9.4-9.9,8.7-8.7,8.5z"/>
		<path class="st0" d="M-19.8,10.9c2-0.4,3.8,1.2,3.1,3.1c-1.2,3-5.8,1.8-4.9-1.5C-21.4,11.9-20.9,11.2-19.8,10.9z"/>
		<path class="st0" d="M-53.8,11.6c0.4,0.9,0.7,2.1,0.7,3.4c-0.3,0.7-1.5,1-2.2,0.5c-0.4-0.9-0.7-2.1-0.7-3.4
			C-55.7,11.4-54.5,11.1-53.8,11.6z"/>
		<path class="st0" d="M-12.9,14.9c2-0.4,3.8,1.2,3.1,3.1c-1.2,3-5.8,1.8-4.9-1.5C-14.5,15.8-14,15.1-12.9,14.9z"/>
		<path class="st0" d="M-61.9,21.2c-1.4-0.6-2.7-2.3-2.2-4c1-0.1,2.1-0.8,3-0.3C-60.4,18.5-60.9,20.2-61.9,21.2z"/>
		<path class="st0" d="M-24.3,19.2c3.3-0.6,6.3,2,5.1,5.6c-1.4,4.4-7.3,3.5-8.5,0.1c-0.2-0.6-0.5-1.2,0-2.9
			C-27.3,20.8-26.3,19.5-24.3,19.2z"/>
		<path class="st0" d="M-55.8,22.5c-1.5,1.1-3.6,0.5-4.8-0.4c0.6-1.5,2.2-2.6,4.1-2.3C-56.1,20.5-55.9,21.5-55.8,22.5z"/>
		<path class="st0" d="M-62.9,22.6c-0.7,1.4-2,2.3-4,2.3c-0.4-0.7-0.8-2-0.6-3c0.8,0,1.5-0.6,2.2-0.5
			C-64.4,21.5-63.6,22.3-62.9,22.6z"/>
		<path class="st0" d="M21.9,39.8c-0.9,1.6-3.1,1.2-5.6,1.2c-1.4,0-2.8,0.1-3.9,0c-4.9-0.4-7.4-4.3-7.8-9.2
			c-0.1-1.1,0.1-2.2,0.1-3.6c0-1.1-0.3-2.6,0-3.7C5.2,22.7,8.2,22.2,9,24c0.6,1.2,0.2,3.2,0.2,4.4c0,2.9-0.3,5.2,1,6.7
			c0.7,0.8,2.1,1.4,3.4,1.5c2.1,0.2,4.3-0.3,6.6,0c0.2,0,0.7,0.2,1,0.3c0.1,0,0.5,0.6,0.6,0.6c0.3,0,0.4-0.4,0.6-0.6
			c1.1-0.8,5-0.5,7.2-0.5c1.6,0,5.3,0.6,5.4-1c0.1-1.5-1.8-1.3-4-1.3c-4.8,0-8.4,0.2-9.9-2.9c-0.9-1.9-0.6-5.2,0.8-6.7
			c1.9-1.9,5.4-1.7,9.8-1.7c1.8,0,4.5-0.2,5.5,0.2c1.3,0.5,1.8,3.5-0.1,4.1c-1.4,0.5-4.7,0.1-6.6,0.1c-1.5,0-5.5-0.6-5.5,1.2
			c0,1.5,2.4,1.2,4.1,1.2c1.2,0,3.7-0.2,5.3,0c3,0.3,5,2.6,5,5.5c0,2.9-1.7,5.2-4.9,5.6c-1.7,0.2-3.7,0-5.5,0
			C26.5,40.8,23.1,41.3,21.9,39.8z"/>
		<path class="st0" d="M-59,27.3c-0.8,0.4-2.1,0.7-3.1,0.6c-0.1-0.8-0.6-1.5-0.5-2.2c0.1-0.9,0.9-1.5,1.1-2.2
			C-59.9,23.9-59,25.2-59,27.3z"/>
		<path class="st0" d="M-49,24.4c2.4-0.4,4.4,0.9,5.1,2.7c1,2.9-1.3,5.6-3.4,5.9c-2.2,0.3-4.9-1.1-5.3-3.5c0-0.3-0.2-1.3,0.2-2.4
			C-52,26-50.6,24.7-49,24.4z"/>
		<path class="st0" d="M-35.8,25.9c1.5-0.4,3,0.9,2.3,2.7c-0.8,2-4.4,1.2-3.6-1.5C-37,26.6-36.7,26.1-35.8,25.9z"/>
		<path class="st0" d="M-77,31.5c0.9,7.1,5.2,10.8,12.1,11.9c-4,0-8.1,0-12.1,0C-77,39.4-77,35.5-77,31.5z"/>
		<path class="st0" d="M-10.2,41.1c-13.9,0-28.1,0-41.6,0c0.2-1,0.4-2.3,1.3-2.5c0.7-0.2,1.4,0.3,2.1,0.4c2.9,0.3,4.7-0.8,6.3-1.9
			c0.4-0.2,0.7-0.6,1.2-0.8c0.9-0.4,2.3-0.5,3.5-0.7c2.3-0.5,4.6-1,7-1.5c1.3-0.3,2.6-0.6,3.6-0.6c1.5,0,3.1,0.6,4.7,0.5
			c1.9-0.1,3.1-0.9,4.6-2c2.2-0.8,3.1,2.6,4.1,4.4C-12.3,38.3-10.9,39.7-10.2,41.1z"/>
		<path class="st0" d="M44.1,32.6c0,3.6,0,7.2,0,10.8c-3.3,0-6.6,0-9.9,0C40.3,42.6,43.3,38.7,44.1,32.6z"/>
	</g>
</g>
</svg>
